<svg
      width="24"
      height="25"
      viewBox="0 0 24 25"
      fill="none"
      xmlns="http://www.w3.org/2000/svg"
    >
    <path
        d="M18.677 19.9415L12.962 14.3422C10.4197 16.1128 6.91645 15.6797 4.90288 13.3459C2.88932 11.0121 3.03717 7.55617 5.24301 5.39559C7.44827 3.23407 10.9765 3.08861 13.3594 5.06098C15.7423 7.03335 16.1846 10.4654 14.377 12.9561L20.092 18.5554L18.678 19.9406L18.677 19.9415ZM9.48501 5.63264C7.58871 5.63222 5.9527 6.93617 5.56749 8.75504C5.18227 10.5739 6.15372 12.4078 7.89369 13.1464C9.63365 13.8849 11.6639 13.3252 12.7553 11.8061C13.8466 10.287 13.6991 8.22594 12.402 6.87086L13.007 7.45861L12.325 6.79249L12.313 6.78073C11.5648 6.04327 10.5464 5.62984 9.48501 5.63264Z"
        fill="#376EA7"
    />
</svg>